<?xml version="1.0" standalone="no"?>
<!DOCTYPE svg PUBLIC "-//W3C//DTD SVG 20010904//EN"
 "http://www.w3.org/TR/2001/REC-SVG-20010904/DTD/svg10.dtd">
<svg version="1.0" xmlns="http://www.w3.org/2000/svg"
 width="600.000000pt" height="399.000000pt" viewBox="0 0 600.000000 399.000000"
 preserveAspectRatio="xMidYMid meet">
<metadata>
Created by potrace 1.16, written by Peter Selinger 2001-2019
</metadata>
<g transform="translate(0.000000,399.000000) scale(0.100000,-0.100000)"
fill="#000000" stroke="none">
<path d="M0 3298 c1 -607 3 -688 15 -654 8 22 11 44 8 49 -3 6 -2 8 3 5 5 -3
15 0 22 8 8 9 9 14 2 14 -7 0 -6 6 2 15 29 34 33 41 36 55 2 8 8 17 13 18 5 2
7 8 3 13 -3 5 0 9 6 9 6 0 8 5 5 10 -3 6 -1 10 5 10 6 0 8 5 4 12 -5 8 -2 9
12 4 10 -4 15 -4 11 0 -4 4 -1 14 6 22 10 13 9 15 -3 8 -9 -4 -8 -2 2 7 10 8
15 17 11 20 -3 4 -2 7 4 7 6 0 18 12 28 26 9 15 11 23 4 19 -8 -5 -10 -4 -5 3
4 7 14 12 22 12 13 0 19 13 15 34 -1 5 6 6 15 2 12 -5 15 -2 10 10 -4 11 -2
15 8 11 10 -4 13 -1 9 9 -3 7 1 14 8 14 7 0 10 3 7 6 -11 10 40 56 54 48 7 -4
4 3 -7 15 l-20 23 38 -16 c20 -9 52 -23 71 -31 19 -8 68 -17 108 -21 117 -9
238 -53 323 -115 28 -20 84 -55 126 -77 41 -23 84 -51 95 -63 10 -12 44 -41
75 -64 31 -23 71 -57 87 -77 43 -48 84 -49 136 -3 45 41 50 42 79 12 12 -12
19 -18 15 -13 -16 20 -7 27 14 12 19 -14 24 -13 52 7 17 12 39 23 51 24 33 5
47 12 40 22 -3 6 4 15 16 21 17 9 23 8 33 -6 9 -11 22 -15 43 -12 20 3 30 0
30 -9 0 -7 -6 -13 -14 -13 -7 0 -25 -19 -40 -41 -27 -40 -27 -42 -8 -55 63
-44 125 -101 125 -115 0 -9 -11 -21 -25 -27 -47 -21 -25 -88 27 -80 17 2 24
11 28 33 8 44 31 41 87 -10 l51 -45 35 39 c50 55 62 80 42 86 -8 3 -21 7 -29
9 -8 3 -22 17 -32 31 -13 21 -15 31 -6 50 23 49 90 39 107 -16 4 -11 10 -19
15 -19 11 0 68 72 72 91 2 8 8 17 13 22 6 4 -2 16 -20 30 -51 38 -95 79 -95
88 0 5 14 15 30 24 23 12 30 22 30 44 0 64 -74 69 -86 6 -8 -47 -25 -45 -92
10 -55 46 -72 54 -72 34 0 -5 -5 -7 -10 -4 -6 3 -7 23 -4 43 12 75 11 89 -3
128 -7 21 -16 48 -18 59 -16 70 -12 70 16 0 22 -57 32 -98 33 -142 0 -34 4
-59 7 -55 15 16 47 102 36 96 -9 -5 -9 -4 0 6 8 9 9 20 2 37 -7 18 -6 30 3 41
11 13 11 15 -2 8 -8 -4 -6 1 5 11 49 44 60 74 59 163 -1 104 -29 351 -46 405
-16 52 -79 113 -205 198 l-100 67 -832 0 -831 0 0 -692z"/>
<path d="M1976 3953 c49 -118 137 -284 158 -298 24 -16 47 -53 24 -39 -7 4 -8
3 -4 -4 6 -10 109 -63 146 -75 9 -3 6 -6 -8 -6 -13 -1 -36 6 -52 14 -26 14
-29 14 -24 0 4 -8 11 -15 16 -15 6 0 7 -8 4 -17 -4 -10 -4 -14 0 -11 10 10 46
-11 39 -23 -4 -5 0 -9 7 -9 8 0 23 -6 34 -14 18 -14 18 -15 -6 -25 -24 -9 -24
-10 -3 -10 17 -1 21 -5 16 -18 -4 -11 -3 -14 5 -9 8 5 10 2 6 -8 -4 -9 -1 -16
6 -16 7 0 10 -7 6 -15 -9 -25 27 -80 46 -69 4 3 5 -3 1 -12 -4 -11 -8 -13 -11
-6 -7 22 -17 12 -18 -18 -1 -26 2 -30 26 -30 15 0 38 9 51 21 17 14 19 19 7
15 -15 -4 -16 -1 -8 20 7 17 7 23 0 19 -6 -3 -10 -2 -10 4 0 5 6 12 13 14 8 4
8 6 -3 6 -10 1 -8 5 7 16 23 16 21 52 -5 71 -12 8 -10 15 13 42 15 18 24 33
21 33 -3 1 -10 3 -16 4 -5 1 -13 3 -17 4 -4 0 2 9 13 20 10 10 27 28 36 39 16
20 16 20 -39 15 -43 -5 -54 -3 -49 6 5 7 10 10 12 8 10 -9 74 58 74 77 0 19 1
19 17 3 16 -15 15 -18 -10 -37 -34 -27 -35 -48 -2 -26 28 19 44 14 43 -12 0
-28 38 -118 61 -141 11 -11 21 -17 21 -12 0 5 -7 14 -15 21 -18 15 -20 31 -2
27 6 -1 11 4 9 11 -1 8 2 11 8 7 6 -3 8 -11 5 -16 -3 -5 1 -6 10 -3 12 5 13
10 4 20 -8 10 -7 12 8 9 12 -2 20 2 20 10 0 8 -5 11 -11 8 -5 -4 0 7 12 24 12
17 22 36 22 41 0 6 5 14 12 18 7 5 8 2 3 -7 -6 -10 -5 -11 4 -3 6 6 13 21 16
34 2 12 7 25 11 29 4 3 4 -2 1 -11 -3 -10 -2 -20 4 -23 5 -4 9 -3 8 2 -1 4 -1
17 0 28 1 15 4 16 10 7 12 -20 33 10 28 39 -3 13 1 30 9 37 11 10 18 7 39 -15
14 -15 25 -30 25 -34 0 -3 7 -6 15 -6 8 0 11 5 8 10 -4 7 1 8 12 3 15 -5 16
-4 6 8 -10 12 -9 14 8 9 13 -3 23 0 27 11 3 9 10 13 15 10 5 -3 9 1 9 8 0 10
2 10 8 1 5 -9 13 0 22 25 8 20 13 41 12 45 -1 5 2 6 8 2 6 -3 7 -12 3 -18 -5
-9 -3 -9 8 -1 18 15 64 -1 53 -17 -4 -8 -3 -9 5 -5 6 4 9 11 7 15 -3 3 11 7
29 7 18 0 31 -4 29 -8 -3 -4 -2 -8 3 -8 31 0 45 148 17 188 l-15 22 -594 0
-594 0 15 -37z"/>
<path d="M3737 3953 c-25 -65 -31 -105 -16 -114 11 -7 9 -12 -8 -24 -12 -8
-24 -28 -28 -44 -3 -15 -16 -34 -29 -40 -25 -14 -62 -69 -52 -78 3 -4 6 0 6 8
1 10 5 8 15 -5 8 -11 15 -15 15 -10 0 6 -5 15 -11 21 -8 8 -8 13 0 18 7 4 10
1 9 -7 -2 -7 2 -12 9 -11 8 2 10 -4 6 -15 -6 -15 -5 -16 12 -2 10 8 16 10 13
5 -4 -6 -3 -17 3 -25 7 -12 9 -11 9 5 1 16 4 14 16 -10 8 -16 12 -21 9 -10 -4
13 4 9 23 -15 17 -19 27 -39 24 -44 -3 -5 0 -6 7 -1 9 5 7 13 -8 29 -12 12
-21 26 -21 32 0 5 5 1 11 -9 6 -9 15 -15 20 -11 5 3 8 0 7 -8 -2 -7 3 -12 10
-10 7 1 15 -5 18 -13 3 -8 11 -12 17 -8 6 4 7 1 2 -7 -6 -10 -11 -9 -22 5 -7
11 -13 14 -13 9 0 -6 13 -22 28 -37 20 -19 29 -23 29 -13 0 8 -5 12 -10 9 -6
-3 -7 -1 -3 6 10 16 25 5 21 -17 -2 -9 -4 -17 -5 -17 -1 0 -3 -8 -5 -18 -2
-11 -1 -16 2 -13 4 3 15 -2 26 -11 11 -10 17 -12 13 -5 -4 6 -3 12 3 12 5 0
12 -6 14 -12 4 -9 6 -9 6 1 1 11 5 10 17 -5 8 -10 12 -12 8 -4 -7 13 -5 13 9
1 9 -7 23 -11 31 -8 14 6 46 -21 46 -39 0 -5 -4 -3 -9 4 -7 11 -9 11 -14 -1
-3 -9 2 -21 11 -29 11 -9 14 -10 8 0 -4 7 -1 12 9 12 9 0 14 -4 10 -9 -3 -5
-1 -12 5 -16 6 -4 8 -11 4 -16 -8 -14 26 -50 39 -42 6 3 7 1 3 -6 -4 -6 -13
-8 -19 -4 -7 3 -3 -3 7 -15 11 -12 16 -22 11 -22 -4 0 -2 -6 4 -14 8 -10 9
-16 1 -21 -6 -3 -7 -12 -3 -18 4 -7 -2 -5 -12 3 -10 8 -16 10 -12 4 4 -7 -2
-14 -13 -17 -11 -3 -20 -11 -20 -19 0 -10 3 -9 10 2 5 8 10 10 10 3 0 -6 9 -9
22 -5 16 4 19 2 13 -9 -6 -11 -5 -11 4 -3 14 13 51 7 51 -8 0 -5 6 -6 13 -2 7
5 6 0 -3 -11 -9 -11 -10 -16 -2 -11 7 4 12 2 12 -4 0 -6 4 -9 9 -5 5 3 13 0
17 -6 4 -8 3 -9 -4 -5 -7 4 -12 1 -12 -9 0 -9 5 -13 10 -10 10 6 19 -9 24 -37
1 -7 6 -19 10 -27 6 -8 5 -12 0 -8 -5 3 -17 0 -26 -7 -16 -12 -16 -14 8 -25
15 -6 22 -16 18 -23 -4 -7 -3 -8 5 -4 6 4 9 12 6 17 -4 5 -2 9 4 9 23 0 15
-27 -18 -56 -35 -32 -47 -59 -31 -69 5 -3 7 3 5 15 -5 26 10 34 28 16 11 -12
17 -12 28 -3 7 7 6 3 -4 -9 -9 -11 -17 -25 -17 -30 0 -5 5 -2 11 6 9 12 10 10
6 -8 -5 -19 -3 -21 9 -11 7 6 12 15 9 19 -3 5 -1 11 4 14 13 9 7 -19 -8 -38
-11 -13 -11 -19 0 -33 11 -14 9 -14 -9 1 -22 19 -22 19 -16 1 5 -13 4 -16 -5
-10 -10 6 -11 3 -2 -13 16 -30 14 -36 -6 -21 -16 13 -17 12 -4 -4 10 -13 17
-15 27 -6 14 11 20 1 15 -25 -1 -5 21 10 49 34 27 23 48 45 45 49 -2 4 1 8 8
8 28 0 138 82 220 164 48 48 87 91 88 96 8 81 19 246 18 273 -4 103 -3 198 4
310 10 161 15 192 29 184 8 -5 9 -1 5 12 -6 17 -6 17 5 3 7 -9 19 -14 27 -11
8 3 11 0 7 -7 -4 -7 0 -11 12 -11 10 0 28 -9 40 -20 12 -11 24 -20 27 -20 22
1 25 -1 19 -12 -4 -6 -3 -8 4 -4 6 3 18 -1 26 -10 9 -8 16 -12 16 -7 0 4 5 0
11 -9 5 -10 16 -18 23 -18 7 0 21 -9 31 -20 10 -11 22 -20 27 -20 5 0 33 -16
62 -35 29 -19 57 -35 61 -35 4 0 14 -8 22 -17 10 -12 12 -13 8 -3 -4 10 -2 9
8 -2 8 -10 17 -15 20 -11 4 3 7 1 7 -5 0 -7 7 -12 15 -12 8 0 15 -4 15 -10 0
-5 7 -10 16 -10 9 0 12 -5 8 -12 -4 -6 -3 -8 4 -4 6 3 17 -1 25 -9 9 -8 21
-15 27 -15 6 0 8 -4 5 -10 -3 -5 2 -10 12 -10 23 -1 55 -25 45 -34 -4 -4 -2
-7 3 -6 19 4 36 0 31 -8 -2 -4 9 -14 25 -21 16 -7 27 -17 23 -22 -3 -5 2 -9
10 -9 9 0 25 -9 36 -20 11 -11 25 -20 31 -20 5 0 7 -4 4 -10 -3 -5 -1 -10 5
-10 6 0 23 -11 37 -24 15 -14 30 -23 35 -20 5 3 7 1 6 -4 -3 -11 57 -72 71
-72 5 0 13 -9 16 -20 4 -11 11 -18 16 -15 5 4 9 1 9 -5 0 -6 10 -22 23 -35 59
-64 65 -73 59 -80 -4 -4 0 -5 8 -3 8 1 14 -3 12 -10 -1 -6 4 -11 10 -10 7 2
12 -3 10 -9 -1 -7 5 -13 15 -13 9 0 13 -3 10 -6 -4 -4 6 -18 21 -31 l27 -23
-60 7 c-80 11 -428 8 -485 -4 -35 -7 -55 -5 -90 8 -53 20 -144 34 -137 22 3
-5 -15 -20 -41 -33 l-46 -25 29 -5 30 -5 -32 -14 c-18 -7 -38 -20 -45 -29 -11
-13 -10 -14 8 -4 25 13 39 5 23 -14 -13 -16 -3 -34 19 -34 11 -1 6 -7 -13 -18
-53 -29 -134 -86 -130 -90 2 -2 25 3 52 11 26 9 66 19 88 22 l40 6 -50 -24
c-27 -14 -45 -26 -40 -27 6 -1 -1 -5 -15 -9 -16 -5 -45 -1 -80 11 -90 31 -231
20 -261 -20 -11 -14 -11 -15 1 -4 37 33 35 5 -5 -52 -25 -35 -45 -68 -45 -72
0 -5 -10 -22 -21 -39 l-21 -30 5 27 c2 15 0 25 -4 22 -5 -3 -9 -13 -10 -22 0
-14 -2 -14 -10 3 -7 15 -8 11 -5 -18 5 -37 4 -37 -17 -22 -28 20 -43 19 -26
-1 10 -13 10 -17 -1 -24 -9 -6 -1 -10 26 -15 77 -13 75 -21 -5 -19 -73 1 -83
-1 -96 -19 -8 -12 -15 -30 -15 -39 0 -10 -10 -22 -23 -27 -15 -6 -37 -37 -65
-93 -23 -47 -42 -91 -42 -99 -1 -24 -28 34 -35 74 -7 36 -25 53 -25 22 0 -8
-5 -15 -12 -15 -9 0 -9 -3 -1 -11 7 -7 10 -30 6 -60 -5 -40 -3 -50 11 -55 13
-5 14 -9 5 -21 -7 -8 -8 -13 -3 -12 20 4 26 -2 15 -15 -9 -10 -7 -17 6 -27 17
-13 17 -13 3 6 -14 18 -14 19 2 7 9 -8 15 -19 12 -27 -3 -7 6 -22 21 -33 17
-14 21 -22 13 -25 -7 -3 -3 -6 10 -6 13 -1 21 -4 19 -8 -3 -5 1 -14 9 -21 11
-10 14 -10 14 0 1 9 5 7 14 -4 7 -10 16 -15 19 -11 4 3 7 -1 7 -10 0 -9 5 -19
12 -23 7 -5 8 -3 3 6 -5 9 -4 11 3 6 7 -4 12 -14 12 -22 0 -8 4 -13 9 -9 5 3
12 -4 16 -15 3 -11 10 -20 14 -20 4 0 7 -12 6 -27 -1 -16 6 -34 14 -41 11 -10
12 -11 2 -6 -9 5 -6 -5 7 -23 12 -17 22 -36 22 -43 0 -6 4 -9 9 -5 5 3 12 1
16 -5 3 -5 41 -11 83 -12 70 -2 71 -2 20 -5 -32 -2 -58 -8 -58 -13 0 -8 95
-27 113 -22 4 1 7 -2 7 -8 0 -5 -21 -11 -47 -11 l-48 -1 51 -8 c28 -4 60 -12
72 -19 11 -6 31 -12 44 -12 20 -1 20 -2 3 -6 -46 -10 -75 -26 -82 -47 -9 -27
-10 -106 -1 -106 4 0 36 15 70 34 104 56 131 61 199 41 60 -18 106 -54 81 -62
-6 -3 -10 -8 -7 -13 3 -4 -8 -13 -23 -19 -16 -7 -55 -39 -87 -71 -57 -57 -58
-60 -41 -79 13 -14 14 -21 5 -27 -7 -4 -10 -3 -6 3 18 29 -153 101 -238 102
-22 0 -51 4 -65 9 -14 5 -54 10 -90 11 -52 2 -69 -2 -86 -17 -19 -18 -45 -30
-83 -37 -9 -2 -16 -4 -16 -5 0 -10 -91 -14 -135 -6 -19 4 -48 9 -65 12 -16 3
-42 11 -58 19 -15 7 -25 9 -22 4 4 -5 1 -9 -4 -9 -6 0 -11 4 -11 8 0 5 -6 9
-12 10 -21 2 -42 7 -53 14 -10 6 -76 19 -102 21 -7 0 -13 3 -13 7 0 6 -11 8
-67 13 -16 1 -32 5 -38 8 -5 3 -32 7 -58 8 -66 3 -97 16 -97 41 0 12 -4 18
-10 15 -5 -3 -10 -2 -10 3 0 5 -13 8 -30 6 -16 -2 -30 1 -30 6 0 6 -5 10 -11
10 -5 0 -7 -4 -4 -10 4 -7 -2 -7 -18 -1 -14 6 -28 7 -31 4 -3 -4 -6 -2 -6 3 0
6 5 15 10 20 7 7 2 9 -18 6 -23 -3 -34 2 -51 23 -11 15 -21 24 -21 20 0 -5 8
-17 18 -28 15 -19 16 -20 0 -14 -11 4 -18 0 -21 -14 -4 -16 -5 -16 -5 3 0 49
-1 54 -11 38 -6 -8 -7 -19 -3 -25 3 -5 -1 -4 -10 2 -8 7 -19 9 -23 5 -5 -4 -5
-1 -1 6 4 7 12 10 17 7 5 -4 9 4 9 17 0 18 -2 20 -10 8 -9 -15 -11 -13 -14 13
-1 6 -9 11 -18 9 -9 -1 -19 2 -23 8 -3 5 -11 10 -17 10 -5 0 0 -8 13 -18 17
-15 19 -21 9 -27 -8 -5 -11 -4 -6 3 7 12 -32 38 -51 34 -7 -2 -13 2 -13 8 0 5
6 10 13 10 8 0 22 10 33 23 l19 22 -23 -20 c-20 -17 -26 -17 -45 -5 -19 12
-21 11 -10 -2 18 -22 3 -31 -19 -11 -20 18 -25 4 -6 -15 9 -9 9 -12 0 -12 -7
0 -12 5 -12 11 0 5 -4 7 -10 4 -5 -3 -7 0 -4 8 7 19 -12 32 -22 15 -5 -8 -10
-6 -15 8 -7 18 -8 18 -8 -2 -1 -25 14 -39 52 -48 38 -9 34 -29 -18 -85 l-45
-48 61 -48 c33 -26 61 -46 63 -44 1 2 8 19 16 37 21 53 94 56 106 5 6 -22 1
-32 -26 -56 -41 -37 -37 -46 51 -106 l64 -43 35 41 c35 41 36 41 66 27 16 -9
68 -22 114 -29 47 -8 71 -15 53 -16 -18 0 -55 4 -83 10 -28 6 -53 9 -56 7 -2
-3 42 -30 99 -61 68 -37 126 -61 172 -71 104 -22 104 -22 98 -63 -4 -26 -3
-34 5 -29 7 4 12 2 12 -3 0 -6 -4 -11 -10 -11 -5 0 -10 -13 -10 -28 0 -53 70
-94 187 -110 107 -15 126 -31 36 -32 l-72 0 -5 -32 c-13 -88 -16 -177 -6 -204
6 -16 27 -45 46 -65 27 -27 32 -38 21 -42 -8 -3 -17 -20 -21 -38 -10 -54 30
-124 130 -226 86 -88 91 -90 144 -97 30 -3 74 -6 98 -6 23 0 42 -4 42 -10 0
-5 -9 -10 -21 -10 -11 0 -18 -3 -16 -7 3 -5 -9 -9 -25 -10 -17 -1 -37 -8 -46
-15 -13 -11 -14 -11 -7 2 7 12 6 13 -6 4 -8 -6 -21 -14 -29 -17 -8 -3 360 -6
818 -6 l832 -1 0 725 c0 399 -4 725 -8 725 -13 0 -48 -41 -66 -77 -19 -39 -34
-49 -49 -34 -18 18 -44 13 -59 -11 -21 -33 -30 -72 -37 -167 -7 -102 -20 -117
-77 -86 -51 27 -124 94 -135 123 -6 15 -5 37 2 61 8 28 8 43 0 59 -19 36 -76
71 -131 82 -50 9 -76 23 -193 99 -107 69 -168 94 -232 94 -66 1 -99 -6 -123
-25 -9 -7 -13 -8 -9 -2 3 6 25 24 49 40 24 15 72 54 108 85 60 52 72 70 145
216 75 148 82 159 116 170 44 15 99 3 225 -48 43 -17 140 -51 214 -76 74 -25
163 -56 198 -69 l62 -23 0 1064 0 1065 -1124 0 -1124 0 -15 -37z"/>
<path d="M719 2661 c-83 -6 -89 -10 -163 -91 -23 -24 -80 -86 -128 -137 -70
-75 -96 -113 -139 -199 -62 -125 -89 -154 -204 -219 l-85 -47 0 -984 0 -984
1805 0 c1365 0 1805 3 1805 12 0 6 -11 30 -25 54 -27 47 -90 79 -105 54 -5 -9
-9 -9 -14 -1 -4 6 -15 11 -24 11 -15 -1 -15 -2 1 -14 20 -16 5 -26 -25 -18
-21 5 -25 66 -7 122 5 19 16 71 24 115 7 44 18 94 25 110 11 27 10 36 -11 80
-14 29 -38 59 -58 72 -68 45 -153 19 -167 -52 -3 -18 -17 -43 -30 -56 l-23
-22 8 29 c11 37 41 96 80 153 16 24 27 51 23 59 -3 8 -1 13 4 9 6 -3 8 8 6 28
-3 22 -11 36 -22 40 -10 3 -25 16 -33 29 -10 15 -29 25 -54 29 -21 3 -47 9
-58 12 -14 4 -30 -4 -53 -25 -51 -46 -50 -36 2 20 25 27 47 54 47 60 1 5 2 14
3 19 0 6 11 19 24 31 12 12 20 25 17 31 -9 13 -49 11 -63 -3 -9 -9 -16 -5 -32
14 -11 14 -31 29 -44 32 -45 11 -71 48 -75 102 -1 31 -10 61 -25 81 -44 64 -2
153 60 125 13 -7 29 -23 34 -37 12 -31 21 -31 46 -4 19 22 19 22 -3 10 -21
-11 -27 -8 -24 12 0 4 -4 6 -9 5 -6 -2 -25 24 -43 57 -17 33 -34 62 -38 65 -3
3 -5 18 -5 33 1 16 -3 31 -8 34 -5 3 -6 1 -2 -5 4 -7 3 -12 -2 -12 -11 0 -23
36 -15 44 3 3 17 -2 32 -11 26 -15 26 -15 4 3 -12 11 -37 38 -56 61 l-35 43
-48 -44 -48 -43 32 -17 c40 -20 52 -59 27 -86 -33 -36 -84 -20 -100 31 -7 20
-30 22 -30 1 0 -5 -4 -14 -9 -19 -5 -5 -6 -3 -2 5 15 26 -10 10 -56 -35 l-47
-46 84 -90 c93 -100 95 -108 37 -172 -15 -16 -37 -44 -50 -62 -20 -29 -20 -32
-4 -36 13 -4 13 -5 -4 -6 -11 0 -33 -14 -47 -31 -26 -28 -36 -53 -19 -48 4 2
8 -1 9 -7 1 -5 -5 -9 -13 -7 -8 2 -14 -4 -14 -13 0 -9 -4 -13 -10 -10 -5 3
-10 -1 -10 -9 0 -9 -4 -16 -10 -16 -5 0 -10 -7 -10 -15 0 -9 -7 -18 -15 -21
-8 -4 -12 -10 -9 -15 3 -5 -4 -9 -16 -9 -12 0 -18 -4 -15 -10 3 -5 0 -10 -7
-10 -10 0 -10 -2 0 -9 10 -6 7 -10 -13 -15 -15 -4 -25 -10 -21 -13 3 -3 -3
-13 -14 -20 -11 -8 -18 -18 -15 -23 3 -4 1 -10 -5 -12 -9 -3 -22 -46 -76 -246
l-15 -52 -44 30 c-24 16 -51 30 -60 30 -13 0 -8 10 19 40 32 35 36 46 36 93 0
39 -6 61 -24 88 -28 41 -100 83 -129 75 -17 -4 -18 -3 -3 13 9 10 13 21 9 24
-3 4 3 16 15 27 12 12 23 31 24 43 7 95 5 113 -21 159 -15 26 -31 45 -34 41
-4 -3 -7 -1 -7 6 0 7 -16 19 -36 27 -23 10 -34 20 -30 29 6 15 -19 40 -32 31
-10 -6 -22 16 -47 86 -9 25 -29 60 -44 78 -25 30 -43 36 -131 40 -31 1 14 20
49 20 36 0 110 -42 193 -108 35 -28 43 -31 50 -18 5 9 18 16 29 16 18 0 135
108 126 116 -2 2 -25 -3 -52 -11 -74 -23 -77 -17 -5 13 138 58 174 93 172 165
-2 32 1 38 10 29 9 -9 9 -25 2 -62 -12 -58 -4 -63 27 -17 35 51 92 107 109
107 8 0 23 -14 32 -30 18 -32 48 -39 68 -16 21 26 8 59 -27 68 -18 5 -35 13
-38 19 -8 12 13 46 61 99 l34 38 -40 36 c-22 20 -44 36 -49 36 -5 0 -11 -13
-14 -29 -11 -56 -80 -66 -113 -16 -20 31 -11 61 27 84 24 15 27 20 16 29 -8 7
-18 8 -22 4 -5 -4 -5 -2 -2 4 8 15 -40 47 -55 38 -7 -4 -8 -3 -4 4 4 7 3 12
-1 12 -5 0 -26 -23 -47 -50 -41 -53 -71 -76 -80 -61 -6 10 -68 7 -86 -4 -5 -3
-10 -1 -10 6 0 7 -3 9 -6 6 -10 -10 16 -37 35 -37 9 0 22 -4 30 -9 20 -13 6
-41 -55 -116 l-47 -58 32 -26 c17 -14 31 -29 31 -32 0 -10 -48 -26 -139 -48
-46 -11 -87 -24 -90 -29 -3 -4 -30 -10 -60 -11 -29 -1 -63 -5 -75 -8 -11 -3
-48 -7 -81 -8 -33 -1 -71 -7 -85 -15 -34 -18 -216 -149 -246 -177 -14 -13 -27
-23 -29 -23 -22 0 -128 -78 -150 -110 -15 -22 -30 -38 -32 -36 -3 2 -22 -12
-43 -32 -54 -52 -62 -92 -44 -216 15 -100 50 -207 131 -391 l35 -80 -30 -25
c-57 -49 -137 -119 -148 -130 -9 -9 -23 -3 -57 22 -39 29 -133 84 -155 90 -7
3 -35 24 -58 46 -8 7 -14 11 -14 8 0 -10 -182 124 -216 158 -20 21 -33 46 -38
75 -19 124 -99 221 -259 316 -99 59 -177 124 -177 148 0 4 -4 5 -10 2 -5 -3
-10 -4 -10 -1 0 9 106 65 181 96 l74 30 73 -31 c108 -45 186 -43 287 4 85 41
172 104 229 168 l39 42 126 8 c69 4 191 8 271 9 l146 0 -4 60 c-3 55 8 80 21
48 4 -10 6 -10 6 0 2 30 21 -2 21 -35 0 -47 10 -37 12 10 1 27 8 41 25 52 32
22 63 74 63 108 0 37 17 67 37 67 30 0 83 24 83 37 0 7 4 13 9 13 5 0 14 13
21 29 11 28 16 29 91 36 95 8 113 0 103 -51 -5 -27 -2 -35 19 -48 47 -32 75 4
48 62 -20 44 -8 52 82 52 l69 0 -7 53 c-12 95 -14 97 -60 73 -40 -21 -85 2
-85 42 0 47 31 69 75 52 34 -13 38 -1 25 68 l-12 59 -50 -9 c-27 -5 -66 -8
-86 -6 -35 3 -37 5 -38 38 -2 56 -3 59 -23 70 -44 23 -72 -19 -46 -70 22 -42
14 -57 -34 -65 -25 -4 -41 -12 -41 -21 0 -23 -9 -17 -62 41 -53 58 -82 82
-293 243 -155 118 -163 123 -229 128 -60 5 -121 12 -121 14 0 1 -25 4 -55 5
-59 4 -69 6 -175 29 -38 9 -72 15 -75 14 -3 -1 -39 -4 -81 -7z"/>
</g>
</svg>
